<svg width="1441" height="120" viewBox="0 0 1441 120" fill="none" xmlns="http://www.w3.org/2000/svg">
    <path d="M160.5 17.2205L122.5 0L84 27.5L36.5 11.5L0 44V78.5L1441 75V44L1424 32.5L1402 46.5L1369 28.7764L1335 44.1843L1301 28.7764L1245.5 53.9275L1135 3.85196L1080 28.7764L1038.5 9.96979L997 28.7764L971.5 17.2205L905 47.3565L869.5 31.2689L825.5 51.2085L750.5 17.2205L725 28.7764L683.5 9.96979L626.5 35.8006L585.5 17.2205L560 28.7764L519 47.3565L444.5 13.5952L395.5 35.8006L362 20.6193L303 47.3565L198.5 0L160.5 17.2205Z" fill="#005889"/>
    <path fill-rule="evenodd" clip-rule="evenodd" d="M68.5 0L106.5 17.2205L144.5 0L249 47.3565L308 20.6193L341.5 35.8006L390.5 13.5952L465 47.3565L506 28.7764L531.5 17.2205L572.5 35.8006L629.5 9.96979L671 28.7764L696.5 17.2205L771.5 51.2085L815.5 31.2689L851 47.3565L917.5 17.2205L943 28.7764L984.5 9.96979L1026 28.7764L1081 3.85196L1191.5 53.9275L1247 28.7764L1281 44.1843L1315 28.7764L1362.5 47L1399.5 32.5L1441 53.9275V75V120H0V75V53.9375L68.5 0Z" fill="#006FAC"/>
</svg>
