<?xml version="1.0" encoding="utf-8"?>
<!-- Generator: Adobe Illustrator 24.0.1, SVG Export Plug-In . SVG Version: 6.00 Build 0)  -->
<svg version="1.1" id="Layer_1" xmlns="http://www.w3.org/2000/svg" xmlns:xlink="http://www.w3.org/1999/xlink" x="0px" y="0px"
	 viewBox="0 0 1446 76" style="enable-background:new 0 0 1446 76;" xml:space="preserve">
<style type="text/css">
	.st0{opacity:0.56;fill:#FFFFFF;enable-background:new    ;}
	.st1{fill:#FFFFFF;}
</style>
<path class="st0" d="M86.5,33.5l65-33.5l38,17.2l38-17.2L332,47.4l59-26.7l33.5,15.2l49-22.2L548,47.4l41-18.6l25.5-11.5l41,18.6
	l57-25.8L754,28.8l25.5-11.6l75,34l44-19.9L934,47.4l66.5-30.1l25.5,11.6l41.5-18.8l41.5,18.8l55-24.9l110.5,50.1l55.5-25.1l34,15.4
	l47.5-7.2l34.5,8.5v8v22L0,75V44.5l46-30L86.5,33.5z"/>
<path class="st1" d="M97.5,0L0,53v22l1446,1V54l-30-14l-39.5,11l-28-22.2L1310,44.2l-39.5-6.7l-50,16.4L1110,3.8l-55,24.9L1013.5,10
	L972,28.8l-25.5-11.6L880,47.4l-35.5-16.1l-44,19.9l-75-34L700,28.8L658.5,10l-57,25.8l-41-18.6L535,28.8l-41,18.6l-74.5-33.8
	l-49,22.2L337,20.6l-59,26.7L173.5,0l-38,17.2L97.5,0z"/>
</svg>
